<svg xmlns="http://www.w3.org/2000/svg" width="307.8" height="488.3" viewBox="0 0 307.8 488.3">
  <title>Blick</title>
  <g>
    <path d="M222.9.7c-27.8,5-49.4,24.5-57.9,52-3.4,10.8-3.4,29.3,0,40,7.8,25.1,25.1,42.4,50.1,50.1,6.2,2,9.7,2.4,20,2.4s13.8-.4,20-2.4c25-7.7,42.3-25,50.1-50.1,3.4-10.7,3.4-29.2,0-40-7.7-24.8-25-42.3-49.6-49.9C247.7.3,230.7-.8,222.9.7Z" style="fill: #ee9faf"/>
    <path d="M.4,188.9.7,355.2l2.2,9.6a158.4,158.4,0,0,0,12.7,36.6c7.9,16.6,16.1,28,30.5,42.4,22.4,22.5,46,35.3,77.4,42.1,14.7,3.2,44.6,3.2,59.2,0a143.1,143.1,0,0,0,37.9-13.2c46.7-23.2,78-67.8,84.5-120.4,1.7-13.2.7-37.1-1.9-49.8C290,240.7,242.4,193.6,180.8,181.6c-14.6-2.9-38.4-3.1-53.2-.5-11.8,2.1-30.5,8.1-39.3,12.5a65.7,65.7,0,0,1-6.7,3.1c-.3,0-.5-39.2-.5-87v-87H0Zm175.2,74.2c33.3,11.2,54,43.6,50.4,78.8-1.9,18.4-9.8,34-23.8,47s-29.9,18.8-49,18.8c-13.4,0-21.1-1.8-33.1-7.7-7.9-3.9-10.9-6.1-18-13.2C87.2,371.7,81.2,358,80.3,337c-.6-15.2,1.2-24,7.3-36.1,8.9-17.5,20.5-28.4,38.4-36.1,9.2-3.9,16.6-5.1,29.6-4.7C165.4,260.4,169.1,260.9,175.6,263.1Z" style="fill: #ee9faf"/>
  </g>
</svg>
