<?xml version="1.0" encoding="utf-8"?>
<!-- Generator: Adobe Illustrator 23.0.2, SVG Export Plug-In . SVG Version: 6.00 Build 0)  -->
<svg version="1.1" id="Слой_1" xmlns="http://www.w3.org/2000/svg" xmlns:xlink="http://www.w3.org/1999/xlink" x="0px" y="0px"
	 viewBox="0 0 512 512" style="enable-background:new 0 0 512 512;" xml:space="preserve">
<style type="text/css">
	.st0{fill:#EE9FAF;}
</style>
<title>Card</title>
<path class="st0" d="M462,142H353V80c-0.1-44.2-35.8-79.9-80-80H80C35.8,0.1,0.1,35.8,0,80v352c0.1,44.2,35.8,79.9,80,80h193
	c44.2-0.1,79.9-35.8,80-80c0-11-9-20-20-20s-20,9-20,20c0,22.1-17.9,40-40,40H80c-22.1,0-40-17.9-40-40V80c0-22.1,17.9-40,40-40h193
	c22.1,0,40,17.9,40,40v62h-51c-27.6,0-50,22.4-50,50v131c0,27.6,22.4,50,50,50h200c27.6,0,50-22.4,50-50V192
	C512,164.4,489.6,142,462,142z M262,182h200c5.5,0,10,4.5,10,10v25H252v-25C252,186.5,256.5,182,262,182z M462,333H262
	c-5.5,0-10-4.5-10-10v-66h220v66C472,328.5,467.5,333,462,333z M176,401c11,0,20,9,20,20s-9,20-20,20s-20-9-20-20
	C156.1,410,165,401.1,176,401z M196,111h-40c-11,0-20-9-20-20s9-20,20-20h40c11,0,20,9,20,20S207,111,196,111z"/>
</svg>
