<svg xmlns="http://www.w3.org/2000/svg" width="512" height="431.8" viewBox="0 0 512 431.8">
  <title>Cash</title>
  <g>
    <path d="M447.3,4.6C329.5,62,185.6,68.6,144,69.2H45.1A45.1,45.1,0,0,0,0,114.3C0,373.5-.2,358.5.6,361.8a20.6,20.6,0,0,0,9.5,13.3c3.8,2.4,94.1,56.7,252.7,56.7,76.5,0,158.9-12.8,225.5-48.8A45.1,45.1,0,0,0,512,343.3V45.1c0-33.3-34.9-55-64.7-40.5ZM42.1,114.3a2.9,2.9,0,0,1,3-3H129C236.1,113,370.2,89,465.7,42.4a2.9,2.9,0,0,1,4.2,2.7V259.7c-57.4,32.3-132.1,55.6-216.8,67.7-75.1,10.7-117.9,9-211,8.8ZM468.3,346c-89.9,48.6-223.1,52.6-323.4,32.2,36.9-1.2,62-1.7,114.1-9.2,81.4-11.6,152.2-32.3,210.9-61.7v36A3,3,0,0,1,468.3,346Z" style="fill: #ee9faf"/>
    <path d="M256,292.8a74.4,74.4,0,1,0-74.4-74.4A74.5,74.5,0,0,0,256,292.8ZM256,186a32.4,32.4,0,1,1-32.4,32.4A32.4,32.4,0,0,1,256,186Z" style="fill: #ee9faf"/>
    <path d="M394.8,143.3c4.6,0,3.6,0,38.7-11.8a21,21,0,1,0-13.3-39.8l-32,10.6a21,21,0,0,0,6.6,41Z" style="fill: #ee9faf"/>
    <path d="M85.1,314.2h32.1a21.1,21.1,0,0,0,0-42.1H85.1a21.1,21.1,0,0,0,0,42.1Z" style="fill: #ee9faf"/>
  </g>
</svg>
