<svg xmlns="http://www.w3.org/2000/svg" width="512" height="512" viewBox="0 0 512 512">
  <title>Scan QR</title>
  <g>
    <path d="M132.8,99.9a23.3,23.3,0,0,0-32.9,32.9,23.3,23.3,0,0,0,32.9-32.9Z" style="fill: #ee9faf"/>
    <path d="M209.5,0H23.3A23.3,23.3,0,0,0,0,23.3V209.5a23.2,23.2,0,0,0,23.3,23.2H209.5a23.2,23.2,0,0,0,23.2-23.2V23.3A23.2,23.2,0,0,0,209.5,0ZM186.2,186.2H46.5V46.5H186.2V186.2Z" style="fill: #ee9faf"/>
    <path d="M412.1,99.9a23.3,23.3,0,0,0-32.9,0,23.3,23.3,0,0,0,32.9,32.9,23.3,23.3,0,0,0,0-32.9Z" style="fill: #ee9faf"/>
    <path d="M488.7,0H302.5a23.2,23.2,0,0,0-23.2,23.3V209.5a23.2,23.2,0,0,0,23.2,23.2H488.7A23.2,23.2,0,0,0,512,209.5V23.3A23.3,23.3,0,0,0,488.7,0ZM465.5,186.2H325.8V46.5H465.5V186.2Z" style="fill: #ee9faf"/>
    <path d="M132.8,379.2a23.3,23.3,0,0,0-32.9,0,23.3,23.3,0,0,0,32.9,32.9,23.3,23.3,0,0,0,0-32.9Z" style="fill: #ee9faf"/>
    <path d="M209.5,279.3H23.3A23.2,23.2,0,0,0,0,302.5V488.7A23.3,23.3,0,0,0,23.3,512H209.5a23.2,23.2,0,0,0,23.2-23.3V302.5A23.2,23.2,0,0,0,209.5,279.3ZM186.2,465.5H46.5V325.8H186.2V465.5Z" style="fill: #ee9faf"/>
    <path d="M411.2,372.4H395.6a23.3,23.3,0,0,0,0,46.5h15.6a23.3,23.3,0,0,0,0-46.5Z" style="fill: #ee9faf"/>
    <path d="M488.7,418.9a23.2,23.2,0,0,0-23.2,23.3v23.3H411.2a23.3,23.3,0,1,0,0,46.5h77.5A23.3,23.3,0,0,0,512,488.7V442.2A23.3,23.3,0,0,0,488.7,418.9Z" style="fill: #ee9faf"/>
    <path d="M302.5,372.4a23.2,23.2,0,0,0-23.2,23.2v31.1a23.3,23.3,0,0,0,46.5,0V395.6A23.2,23.2,0,0,0,302.5,372.4Z" style="fill: #ee9faf"/>
    <path d="M411.2,279.3H364.6a23.3,23.3,0,1,0,0,46.5h46.6a23.3,23.3,0,0,0,0-46.5Z" style="fill: #ee9faf"/>
  </g>
</svg>
