<svg xmlns="http://www.w3.org/2000/svg" xmlns:xlink="http://www.w3.org/1999/xlink"><defs><symbol viewBox="0 0 400.004 400.004" id="arrow"><path d="M382.688 182.686H59.116l77.209-77.214c6.764-6.76 6.764-17.726 0-24.485-6.764-6.764-17.73-6.764-24.484 0L5.073 187.757c-6.764 6.76-6.764 17.727 0 24.485l106.768 106.775a17.252 17.252 0 0012.242 5.072c4.43 0 8.861-1.689 12.242-5.072 6.764-6.76 6.764-17.726 0-24.484l-77.209-77.218h323.572c9.562 0 17.316-7.753 17.316-17.315 0-9.562-7.753-17.314-17.316-17.314z" /></symbol><symbol viewBox="0 0 240.823 240.823" id="back-arrow"><path d="M183.19 129.007L74.893 237.268c-4.752 4.74-12.451 4.74-17.215 0-4.752-4.74-4.752-12.439 0-17.179l99.707-99.671L57.69 20.747c-4.752-4.74-4.752-12.439 0-17.191 4.752-4.74 12.463-4.74 17.215 0l108.297 108.26c4.679 4.691 4.679 12.511-.012 17.191z" data-original="#000000" class="active-path" /></symbol><symbol viewBox="0 0 307.8 488.3" id="blink"><g fill="#ee9faf"><path d="M222.9.7c-27.8 5-49.4 24.5-57.9 52-3.4 10.8-3.4 29.3 0 40 7.8 25.1 25.1 42.4 50.1 50.1 6.2 2 9.7 2.4 20 2.4s13.8-.4 20-2.4c25-7.7 42.3-25 50.1-50.1 3.4-10.7 3.4-29.2 0-40-7.7-24.8-25-42.3-49.6-49.9C247.7.3 230.7-.8 222.9.7zM.4 188.9l.3 166.3 2.2 9.6a158.4 158.4 0 0012.7 36.6c7.9 16.6 16.1 28 30.5 42.4 22.4 22.5 46 35.3 77.4 42.1 14.7 3.2 44.6 3.2 59.2 0a143.1 143.1 0 0037.9-13.2c46.7-23.2 78-67.8 84.5-120.4 1.7-13.2.7-37.1-1.9-49.8-13.2-61.8-60.8-108.9-122.4-120.9-14.6-2.9-38.4-3.1-53.2-.5-11.8 2.1-30.5 8.1-39.3 12.5a65.7 65.7 0 01-6.7 3.1c-.3 0-.5-39.2-.5-87v-87H0zm175.2 74.2c33.3 11.2 54 43.6 50.4 78.8-1.9 18.4-9.8 34-23.8 47s-29.9 18.8-49 18.8c-13.4 0-21.1-1.8-33.1-7.7-7.9-3.9-10.9-6.1-18-13.2C87.2 371.7 81.2 358 80.3 337c-.6-15.2 1.2-24 7.3-36.1 8.9-17.5 20.5-28.4 38.4-36.1 9.2-3.9 16.6-5.1 29.6-4.7 9.8.3 13.5.8 20 3z" /></g></symbol><symbol viewBox="0 0 431.972 431.972" id="bookmark"><path d="M393.146 14.279c-3.713-5.333-8.713-9.233-14.989-11.707A31.606 31.606 0 00365.592.004V0H66.378c-4.377 0-8.562.857-12.56 2.568-6.28 2.472-11.278 6.377-14.989 11.707-3.71 5.33-5.568 11.228-5.568 17.701v368.019c0 6.475 1.858 12.371 5.568 17.706 3.711 5.329 8.709 9.233 14.989 11.704a31.577 31.577 0 0012.56 2.566c8.949 0 16.844-3.142 23.698-9.418l125.91-121.062 125.91 121.065c6.663 6.081 14.562 9.127 23.695 9.127 4.76 0 8.948-.756 12.565-2.279 6.276-2.471 11.276-6.375 14.989-11.711 3.71-5.328 5.564-11.225 5.564-17.699V31.98c.001-6.473-1.857-12.371-5.563-17.701zm-30.98 376.86L241.397 275.224l-25.411-24.264-25.409 24.264L69.809 391.139V36.549h292.357v354.59z" /></symbol><symbol viewBox="0 0 512 512" id="card"><path d="M462 142H353V80c-.1-44.2-35.8-79.9-80-80H80C35.8.1.1 35.8 0 80v352c.1 44.2 35.8 79.9 80 80h193c44.2-.1 79.9-35.8 80-80 0-11-9-20-20-20s-20 9-20 20c0 22.1-17.9 40-40 40H80c-22.1 0-40-17.9-40-40V80c0-22.1 17.9-40 40-40h193c22.1 0 40 17.9 40 40v62h-51c-27.6 0-50 22.4-50 50v131c0 27.6 22.4 50 50 50h200c27.6 0 50-22.4 50-50V192c0-27.6-22.4-50-50-50zm-200 40h200c5.5 0 10 4.5 10 10v25H252v-25c0-5.5 4.5-10 10-10zm200 151H262c-5.5 0-10-4.5-10-10v-66h220v66c0 5.5-4.5 10-10 10zm-286 68c11 0 20 9 20 20s-9 20-20 20-20-9-20-20c.1-11 9-19.9 20-20zm20-290h-40c-11 0-20-9-20-20s9-20 20-20h40c11 0 20 9 20 20s-9 20-20 20z" fill="#ee9faf" /></symbol><symbol viewBox="0 0 512 431.8" id="cash"><g fill="#ee9faf"><path d="M447.3 4.6C329.5 62 185.6 68.6 144 69.2H45.1A45.1 45.1 0 000 114.3c0 259.2-.2 244.2.6 247.5a20.6 20.6 0 009.5 13.3c3.8 2.4 94.1 56.7 252.7 56.7 76.5 0 158.9-12.8 225.5-48.8a45.1 45.1 0 0023.7-39.7V45.1c0-33.3-34.9-55-64.7-40.5zM42.1 114.3a2.9 2.9 0 013-3H129C236.1 113 370.2 89 465.7 42.4a2.9 2.9 0 014.2 2.7v214.6c-57.4 32.3-132.1 55.6-216.8 67.7-75.1 10.7-117.9 9-211 8.8zM468.3 346c-89.9 48.6-223.1 52.6-323.4 32.2 36.9-1.2 62-1.7 114.1-9.2 81.4-11.6 152.2-32.3 210.9-61.7v36a3 3 0 01-1.6 2.7z" /><path d="M256 292.8a74.4 74.4 0 10-74.4-74.4 74.5 74.5 0 0074.4 74.4zm0-106.8a32.4 32.4 0 11-32.4 32.4A32.4 32.4 0 01256 186zM394.8 143.3c4.6 0 3.6 0 38.7-11.8a21 21 0 10-13.3-39.8l-32 10.6a21 21 0 006.6 41zM85.1 314.2h32.1a21.1 21.1 0 000-42.1H85.1a21.1 21.1 0 000 42.1z" /></g></symbol><symbol viewBox="0 0 512 512" id="qr"><g fill="#ee9faf"><path d="M132.8 99.9a23.3 23.3 0 00-32.9 32.9 23.3 23.3 0 0032.9-32.9z" /><path d="M209.5 0H23.3A23.3 23.3 0 000 23.3v186.2a23.2 23.2 0 0023.3 23.2h186.2a23.2 23.2 0 0023.2-23.2V23.3A23.2 23.2 0 00209.5 0zm-23.3 186.2H46.5V46.5h139.7v139.7zM412.1 99.9a23.3 23.3 0 00-32.9 0 23.3 23.3 0 0032.9 32.9 23.3 23.3 0 000-32.9z" /><path d="M488.7 0H302.5a23.2 23.2 0 00-23.2 23.3v186.2a23.2 23.2 0 0023.2 23.2h186.2a23.2 23.2 0 0023.3-23.2V23.3A23.3 23.3 0 00488.7 0zm-23.2 186.2H325.8V46.5h139.7v139.7zM132.8 379.2a23.3 23.3 0 00-32.9 0 23.3 23.3 0 0032.9 32.9 23.3 23.3 0 000-32.9z" /><path d="M209.5 279.3H23.3A23.2 23.2 0 000 302.5v186.2A23.3 23.3 0 0023.3 512h186.2a23.2 23.2 0 0023.2-23.3V302.5a23.2 23.2 0 00-23.2-23.2zm-23.3 186.2H46.5V325.8h139.7v139.7zM411.2 372.4h-15.6a23.3 23.3 0 000 46.5h15.6a23.3 23.3 0 000-46.5zM488.7 418.9a23.2 23.2 0 00-23.2 23.3v23.3h-54.3a23.3 23.3 0 100 46.5h77.5a23.3 23.3 0 0023.3-23.3v-46.5a23.3 23.3 0 00-23.3-23.3zM302.5 372.4a23.2 23.2 0 00-23.2 23.2v31.1a23.3 23.3 0 0046.5 0v-31.1a23.2 23.2 0 00-23.3-23.2zM411.2 279.3h-46.6a23.3 23.3 0 100 46.5h46.6a23.3 23.3 0 000-46.5z" /></g></symbol><symbol viewBox="0 0 511.997 511.997" id="shopping-cart"><path d="M405.387 362.612c-35.202 0-63.84 28.639-63.84 63.84s28.639 63.84 63.84 63.84 63.84-28.639 63.84-63.84-28.639-63.84-63.84-63.84zm0 89.376c-14.083 0-25.536-11.453-25.536-25.536s11.453-25.536 25.536-25.536c14.083 0 25.536 11.453 25.536 25.536s-11.453 25.536-25.536 25.536zM507.927 115.875a19.128 19.128 0 00-15.079-7.348H118.22l-17.237-72.12a19.16 19.16 0 00-18.629-14.702H19.152C8.574 21.704 0 30.278 0 40.856s8.574 19.152 19.152 19.152h48.085l62.244 260.443a19.153 19.153 0 0018.629 14.702h298.135c8.804 0 16.477-6.001 18.59-14.543l46.604-188.329a19.185 19.185 0 00-3.512-16.406zM431.261 296.85H163.227l-35.853-150.019h341.003L431.261 296.85zM173.646 362.612c-35.202 0-63.84 28.639-63.84 63.84s28.639 63.84 63.84 63.84 63.84-28.639 63.84-63.84-28.639-63.84-63.84-63.84zm0 89.376c-14.083 0-25.536-11.453-25.536-25.536s11.453-25.536 25.536-25.536 25.536 11.453 25.536 25.536-11.453 25.536-25.536 25.536z" /></symbol><symbol viewBox="0 0 438.529 438.529" id="trash"><path d="M417.689 75.654c-1.711-1.709-3.901-2.568-6.563-2.568h-88.224L302.917 25.41c-2.854-7.044-7.994-13.04-15.413-17.989C280.078 2.473 272.556 0 264.945 0h-91.363c-7.611 0-15.131 2.473-22.554 7.421-7.424 4.949-12.563 10.944-15.419 17.989l-19.985 47.676h-88.22c-2.667 0-4.853.859-6.567 2.568-1.709 1.713-2.568 3.903-2.568 6.567v18.274c0 2.664.855 4.854 2.568 6.564 1.714 1.712 3.904 2.568 6.567 2.568H54.81v271.8c0 15.803 4.473 29.266 13.418 40.398 8.947 11.139 19.701 16.703 32.264 16.703h237.542c12.566 0 23.319-5.756 32.265-17.268 8.945-11.52 13.415-25.174 13.415-40.971V109.627h27.411c2.662 0 4.853-.856 6.563-2.568 1.708-1.709 2.57-3.9 2.57-6.564V82.221c.002-2.664-.861-4.854-2.569-6.567zM169.301 39.678c1.331-1.712 2.95-2.762 4.853-3.14h90.504c1.903.381 3.525 1.43 4.854 3.14l13.709 33.404h-127.91l13.99-33.404zm177.872 340.613c0 4.186-.664 8.042-1.999 11.561-1.334 3.518-2.717 6.088-4.141 7.706-1.431 1.622-2.423 2.427-2.998 2.427H100.493c-.571 0-1.565-.805-2.996-2.427-1.429-1.618-2.81-4.188-4.143-7.706-1.331-3.519-1.997-7.379-1.997-11.561V109.627h255.815v270.664z" /><path d="M137.04 347.172h18.271c2.667 0 4.858-.855 6.567-2.567 1.709-1.718 2.568-3.901 2.568-6.57V173.581c0-2.663-.859-4.853-2.568-6.567-1.714-1.709-3.899-2.565-6.567-2.565H137.04c-2.667 0-4.854.855-6.567 2.565-1.711 1.714-2.568 3.904-2.568 6.567v164.454c0 2.669.854 4.853 2.568 6.57 1.713 1.711 3.9 2.567 6.567 2.567zM210.129 347.172H228.4c2.666 0 4.856-.855 6.564-2.567 1.718-1.718 2.569-3.901 2.569-6.57V173.581c0-2.663-.852-4.853-2.569-6.567-1.708-1.709-3.898-2.565-6.564-2.565h-18.271c-2.664 0-4.854.855-6.567 2.565-1.714 1.714-2.568 3.904-2.568 6.567v164.454c0 2.669.854 4.853 2.568 6.57 1.712 1.711 3.903 2.567 6.567 2.567zM283.22 347.172h18.268c2.669 0 4.859-.855 6.57-2.567 1.711-1.718 2.562-3.901 2.562-6.57V173.581c0-2.663-.852-4.853-2.562-6.567-1.711-1.709-3.901-2.565-6.57-2.565H283.22c-2.67 0-4.853.855-6.571 2.565-1.711 1.714-2.566 3.904-2.566 6.567v164.454c0 2.669.855 4.853 2.566 6.57 1.718 1.711 3.901 2.567 6.571 2.567z" /></symbol></defs></svg>